<?xml version="1.0" encoding="utf-8"?>
<!-- Generator: Adobe Illustrator 26.0.0, SVG Export Plug-In . SVG Version: 6.00 Build 0)  -->
<svg version="1.1" id="Capa_1" xmlns="http://www.w3.org/2000/svg" xmlns:xlink="http://www.w3.org/1999/xlink" x="0px" y="0px"
	 viewBox="0 0 50 50" style="enable-background:new 0 0 50 50;" xml:space="preserve">
<style type="text/css">
	.st0{fill:#E8E8E8;}
</style>
<g>
	<path class="st0" d="M22.2,12.5v-1.7c0-1.8-1.5-3.4-3.4-3.4H7.4C5.5,7.5,4,8.9,4,10.8v28.4c0,1.8,1.5,3.4,3.4,3.4H31
		c1.8,0,3.4-1.5,3.4-3.4V16.7c0-1.8-1.5-3.4-3.4-3.4h-7.9C22.5,13.3,22.2,12.9,22.2,12.5z M29.2,38.3H9c-0.5,0-0.8-0.4-0.8-0.8v-25
		c0-0.5,0.4-0.8,0.8-0.8h8.1c0.5,0,0.8,0.4,0.8,0.8v1.6c0,1.8,1.5,3.4,3.4,3.4h7.9c0.5,0,0.8,0.4,0.8,0.8v19.2
		C30,38,29.7,38.3,29.2,38.3z"/>
	<path class="st0" d="M46,9.6v31c0,1.2-0.9,2.1-2.1,2.1l0,0c-1.2,0-2.1-0.9-2.1-2.1v-31c0-1.2,0.9-2.1,2.1-2.1l0,0
		C45.1,7.5,46,8.4,46,9.6z"/>
	<path class="st0" d="M40.2,10.8v29.7c0,1.2-0.9,2.1-2.1,2.1l0,0c-1.2,0-2.1-0.9-2.1-2.1v-28c0-0.5-0.4-0.8-0.8-0.8H26
		c-1.2,0-2.1-0.9-2.1-2.1l0,0c0-1.2,0.9-2.1,2.1-2.1h10.8C38.6,7.5,40.2,8.9,40.2,10.8z"/>
</g>
</svg>
