<?xml version="1.0" encoding="utf-8"?>
<!-- Generator: Adobe Illustrator 26.0.0, SVG Export Plug-In . SVG Version: 6.00 Build 0)  -->
<svg version="1.1" id="Capa_1" xmlns="http://www.w3.org/2000/svg" xmlns:xlink="http://www.w3.org/1999/xlink" x="0px" y="0px"
	 viewBox="0 0 50 50" style="enable-background:new 0 0 50 50;" xml:space="preserve">
<style type="text/css">
	.st0{fill:#E8E8E8;}
</style>
<g id="XMLID_00000018918461948010053240000000822526024138885813_">
	<path class="st0" d="M34.859,4.632v4.5c1.838,0,3.506,0.868,5.099,2.655c2.05,2.298,2.828,4.654,2.451,7.414
		c-1.023,7.49-10.103,15.823-16.206,20.443c-0.714,0.54-1.691,0.54-2.404,0C17.693,35.023,8.614,26.69,7.591,19.201
		c-0.377-2.759,0.402-5.115,2.452-7.413c1.594-1.787,3.262-2.655,5.101-2.655c2.923,0,5.898,2.136,6.777,2.94l1.005,0.957
		c1.153,1.097,2.961,1.103,4.121,0.014l1.013-0.951c0.9-0.823,3.875-2.959,6.798-2.96L34.859,4.632 M34.858,4.632
		c-4.222,0-7.841,2.518-9.24,3.636c-0.363,0.29-0.872,0.29-1.235,0c-1.399-1.118-5.017-3.635-9.239-3.635
		c-2.713,0-5.677,1.04-8.459,4.16C-5.744,22.728,16.719,40.187,23.28,44.82c1.034,0.73,2.407,0.73,3.441,0
		c6.561-4.633,29.023-22.092,16.595-36.028C40.533,5.672,37.571,4.632,34.858,4.632L34.858,4.632z"/>
</g>
</svg>
