<?xml version="1.0" encoding="utf-8"?>
<!-- Generator: Adobe Illustrator 26.0.0, SVG Export Plug-In . SVG Version: 6.00 Build 0)  -->
<svg version="1.1" id="Capa_1" xmlns="http://www.w3.org/2000/svg" xmlns:xlink="http://www.w3.org/1999/xlink" x="0px" y="0px"
	 viewBox="0 0 50 50" style="enable-background:new 0 0 50 50;" xml:space="preserve">
<style type="text/css">
	.st0{fill:#E8E8E8;}
</style>
<g>
	<g>
		<path class="st0" d="M22.703,27.164v6.16H6.08c-1.698,0-3.08-1.382-3.08-3.08c0-0.845,0.343-1.619,0.906-2.174
			c0.554-0.563,1.329-0.906,2.174-0.906H22.703z"/>
	</g>
	<g>
		<path class="st0" d="M23.117,43.884H6.08c-1.698,0-3.08-1.382-3.08-3.08c0-0.845,0.343-1.619,0.906-2.174
			c0.554-0.563,1.329-0.906,2.174-0.906h16.623v4.03C22.703,42.493,22.844,43.215,23.117,43.884z"/>
	</g>
	<g>
		<path class="st0" d="M47,40.804c0,0.845-0.343,1.619-0.906,2.174c-0.554,0.563-1.329,0.906-2.174,0.906h-7.902l9.548-5.676
			C46.428,38.753,47,39.712,47,40.804z"/>
	</g>
	<g>
		<path class="st0" d="M47,19.684c0,0.845-0.343,1.619-0.906,2.174c-0.554,0.563-1.329,0.906-2.174,0.906h-3.458l-9.117-5.421
			c-0.642-0.387-1.346-0.634-2.059-0.739H43.92C45.618,16.604,47,17.985,47,19.684z"/>
	</g>
	<g>
		<path class="st0" d="M27.534,16.604c-0.678,0.106-1.329,0.334-1.936,0.678c-1.786,1.012-2.895,2.922-2.895,4.972v0.51H6.08
			c-1.698,0-3.08-1.382-3.08-3.08c0-0.845,0.343-1.619,0.906-2.174c0.554-0.563,1.329-0.906,2.174-0.906H27.534z"/>
	</g>
	<g>
		<path class="st0" d="M43.92,12.204H6.08c-1.701,0-3.08-1.379-3.08-3.08v0c0-1.701,1.379-3.08,3.08-3.08h37.84
			c1.701,0,3.08,1.379,3.08,3.08v0C47,10.825,45.621,12.204,43.92,12.204z"/>
	</g>
	<path class="st0" d="M29.546,20.364l16.379,9.749c1.433,0.853,1.433,2.928,0,3.781l-16.379,9.749
		c-1.466,0.873-3.325-0.184-3.325-1.89V22.254C26.221,20.548,28.08,19.491,29.546,20.364z"/>
</g>
</svg>
