<?xml version="1.0" encoding="utf-8"?>
<!-- Generator: Adobe Illustrator 26.0.0, SVG Export Plug-In . SVG Version: 6.00 Build 0)  -->
<svg version="1.1" id="Capa_1" xmlns="http://www.w3.org/2000/svg" xmlns:xlink="http://www.w3.org/1999/xlink" x="0px" y="0px"
	 viewBox="0 0 50 50" style="enable-background:new 0 0 50 50;" xml:space="preserve">
<style type="text/css">
	.st0{fill:#151515;}
</style>
<g>
	<path class="st0" d="M10.4,7.4c-8.5,6.6-8.5,19.4,0,26c5.8,4.5,14.1,4.5,19.9,0c8.5-6.6,8.5-19.4,0-26C24.5,2.9,16.2,2.9,10.4,7.4z
		 M28.9,26.4c-4.2,5.9-12.8,5.9-17,0c-2.6-3.6-2.6-8.5,0-12c4.2-5.9,12.8-5.9,17,0C31.4,17.9,31.4,22.8,28.9,26.4z"/>
	<path class="st0" d="M39.9,45l-6.5-6.5c-1.4-1.4-1.4-3.7,0-5.1l0,0c1.4-1.4,3.7-1.4,5.1,0l6.5,6.5c1.4,1.4,1.4,3.7,0,5.1l0,0
		C43.6,46.3,41.3,46.4,39.9,45z"/>
</g>
</svg>
