<?xml version="1.0" encoding="utf-8"?>
<!-- Generator: Adobe Illustrator 26.0.0, SVG Export Plug-In . SVG Version: 6.00 Build 0)  -->
<svg version="1.1" id="Capa_1" xmlns="http://www.w3.org/2000/svg" xmlns:xlink="http://www.w3.org/1999/xlink" x="0px" y="0px"
	 viewBox="0 0 50 50" style="enable-background:new 0 0 50 50;" xml:space="preserve">
<style type="text/css">
	.st0{fill:#E8E8E8;}
</style>
<g>
	<path class="st0" d="M16.4,46.5L16.4,46.5c-2.8,0-5.2-2.3-5.2-5.2V8.7c0-2.8,2.3-5.2,5.2-5.2h0c2.8,0,5.2,2.3,5.2,5.2v32.7
		C21.6,44.2,19.2,46.5,16.4,46.5z"/>
	<path class="st0" d="M33.6,46.5L33.6,46.5c-2.8,0-5.2-2.3-5.2-5.2V8.7c0-2.8,2.3-5.2,5.2-5.2h0c2.8,0,5.2,2.3,5.2,5.2v32.7
		C38.8,44.2,36.4,46.5,33.6,46.5z"/>
</g>
</svg>
