<?xml version="1.0" encoding="utf-8"?>
<!-- Generator: Adobe Illustrator 26.0.0, SVG Export Plug-In . SVG Version: 6.00 Build 0)  -->
<svg version="1.1" id="Capa_1" xmlns="http://www.w3.org/2000/svg" xmlns:xlink="http://www.w3.org/1999/xlink" x="0px" y="0px"
	 viewBox="0 0 50 50" style="enable-background:new 0 0 50 50;" xml:space="preserve">
<style type="text/css">
	.st0{fill:#E8E8E8;}
</style>
<g>
	<path class="st0" d="M47,26.881v7.8c0,1.701-1.379,3.08-3.08,3.08h0c-1.701,0-3.08-1.379-3.08-3.08l0-7.945
		c0-8.608-6.692-15.957-15.295-16.246C16.549,10.187,9.16,17.392,9.16,26.32v8.36c0,1.701-1.379,3.08-3.08,3.08h0
		C4.379,37.76,3,36.381,3,34.68v-8.36C3,14.7,12.003,5.188,23.416,4.376C36.369,3.455,47,13.895,47,26.881z"/>
	<g>
		<g>
			<path class="st0" d="M32.717,22.192c5.6,0,6.363,2.401,6.363,11.744c0,9.193-0.974,11.744-6.363,11.744h0
				c-2.514,0-4.552-2.038-4.552-4.552V26.744C28.165,24.24,30.214,22.192,32.717,22.192L32.717,22.192z"/>
		</g>
		<g>
			<path class="st0" d="M32.717,22.192c5.6,0,6.363,2.401,6.363,11.744c0,9.193-0.974,11.744-6.363,11.744h0
				c-2.514,0-4.552-2.038-4.552-4.552V26.744C28.165,24.24,30.214,22.192,32.717,22.192L32.717,22.192z"/>
		</g>
	</g>
	<g>
		<g>
			<path class="st0" d="M17.283,22.192c-5.6,0-6.363,2.401-6.363,11.744c0,9.193,0.974,11.744,6.363,11.744h0
				c2.514,0,4.552-2.038,4.552-4.552V26.744C21.835,24.24,19.786,22.192,17.283,22.192L17.283,22.192z"/>
		</g>
		<g>
			<path class="st0" d="M17.283,22.192c-5.6,0-6.363,2.401-6.363,11.744c0,9.193,0.974,11.744,6.363,11.744h0
				c2.514,0,4.552-2.038,4.552-4.552V26.744C21.835,24.24,19.786,22.192,17.283,22.192L17.283,22.192z"/>
		</g>
	</g>
</g>
</svg>
