<?xml version="1.0" encoding="utf-8"?>
<!-- Generator: Adobe Illustrator 26.0.0, SVG Export Plug-In . SVG Version: 6.00 Build 0)  -->
<svg version="1.1" id="Capa_1" xmlns="http://www.w3.org/2000/svg" xmlns:xlink="http://www.w3.org/1999/xlink" x="0px" y="0px"
	 viewBox="0 0 50 50" style="enable-background:new 0 0 50 50;" xml:space="preserve">
<style type="text/css">
	.st0{fill:#E8E8E8;}
</style>
<path class="st0" d="M29.933,5.829c2.234,0.447,3.687,2.621,3.24,4.855l-0.198,0.98c-0.455,2.295-1.298,4.477-2.475,6.463h12.375
	c2.277,0,4.125,1.848,4.125,4.125c0,1.59-0.902,2.973-2.226,3.661c0.937,0.756,1.538,1.916,1.538,3.214
	c0,2.011-1.444,3.687-3.343,4.048c0.378,0.627,0.593,1.358,0.593,2.14c0,1.83-1.195,3.386-2.845,3.919
	c0.06,0.284,0.095,0.584,0.095,0.894c0,2.277-1.848,4.125-4.125,4.125h-8.379c-1.633,0-3.223-0.481-4.58-1.384L20.42,40.66
	c-2.295-1.53-3.67-4.108-3.67-6.866v-3.291v-4.125v-2.14c0-2.509,1.143-4.873,3.094-6.445l0.636-0.507
	c2.277-1.822,3.833-4.383,4.4-7.236l0.198-0.98C25.524,6.835,27.698,5.382,29.933,5.829L29.933,5.829z M5.75,19.502h5.5
	c1.521,0,2.75,1.229,2.75,2.75v19.25c0,1.521-1.229,2.75-2.75,2.75h-5.5c-1.521,0-2.75-1.229-2.75-2.75v-19.25
	C3,20.731,4.229,19.502,5.75,19.502z"/>
</svg>
