<?xml version="1.0" encoding="utf-8"?>
<!-- Generator: Adobe Illustrator 26.0.0, SVG Export Plug-In . SVG Version: 6.00 Build 0)  -->
<svg version="1.1" id="Capa_1" xmlns="http://www.w3.org/2000/svg" xmlns:xlink="http://www.w3.org/1999/xlink" x="0px" y="0px"
	 viewBox="0 0 50 50" style="enable-background:new 0 0 50 50;" xml:space="preserve">
<style type="text/css">
	.st0{fill:#E8E8E8;}
</style>
<g>
	<path class="st0" d="M45.717,12.599l-7.245,4.74c-1.243,0.804-2.898-0.084-2.898-1.57v-0.991H21.196
		c-6.195,0-11.218,3.153-11.218,9.348l0,0c0,2.065-1.674,3.739-3.739,3.739l0,0c-2.065,0-3.739-1.674-3.739-3.739v-1.402
		c0-9.551,7.743-15.425,17.294-15.425h15.78V6.308c0-1.486,1.655-2.374,2.898-1.57l7.245,4.739
		C46.848,10.206,46.848,11.87,45.717,12.599z"/>
	<path class="st0" d="M4.283,37.401l7.245-4.74c1.243-0.804,2.898,0.084,2.898,1.57v0.991h16.247c5.163,0,9.348-4.185,9.348-9.348
		l0,0c0-2.065,1.674-3.739,3.739-3.739h0.467c1.807,0,3.272,1.465,3.272,3.272l0,0c0,9.551-7.743,17.294-17.294,17.294h-15.78v0.991
		c0,1.486-1.655,2.374-2.898,1.57l-7.245-4.739C3.152,39.794,3.152,38.13,4.283,37.401z"/>
</g>
</svg>
