<?xml version="1.0" encoding="utf-8"?>
<!-- Generator: Adobe Illustrator 26.0.0, SVG Export Plug-In . SVG Version: 6.00 Build 0)  -->
<svg version="1.1" id="Capa_1" xmlns="http://www.w3.org/2000/svg" xmlns:xlink="http://www.w3.org/1999/xlink" x="0px" y="0px"
	 viewBox="0 0 50 50" style="enable-background:new 0 0 50 50;" xml:space="preserve">
<style type="text/css">
	.st0{fill:#E8E8E8;}
</style>
<g>
	<path class="st0" d="M25.51,41.681L6.383,30.813c-4.511-2.563-4.511-9.064,0-11.627L25.51,8.319c1.486-0.844,3.33,0.229,3.33,1.938
		c-2.243,9.949-2.3,19.781,0,29.486C28.84,41.452,26.996,42.525,25.51,41.681z"/>
	<path class="st0" d="M47,25c0,7.043-4.328,13.084-10.471,15.601c-1.766,0.724-3.783-0.181-4.437-1.974l0,0
		c-0.633-1.733,0.271-3.59,1.972-4.305c3.64-1.531,6.196-5.131,6.196-9.322c0-4.191-2.556-7.791-6.196-9.323
		c-1.701-0.715-2.604-2.572-1.972-4.305l0,0c0.654-1.793,2.671-2.697,4.437-1.974C42.672,11.916,47,17.957,47,25z"/>
	<path class="st0" d="M37.769,25c0,3.222-2.41,5.89-5.523,6.295c-0.472,0.061-0.933-0.185-1.127-0.619l0,0
		c-1.619-3.611-1.619-7.741,0-11.352l0,0c0.195-0.434,0.656-0.681,1.127-0.619C35.36,19.11,37.769,21.778,37.769,25z"/>
</g>
</svg>
