<?xml version="1.0" encoding="utf-8"?>
<!-- Generator: Adobe Illustrator 26.0.0, SVG Export Plug-In . SVG Version: 6.00 Build 0)  -->
<svg version="1.1" id="Capa_1" xmlns="http://www.w3.org/2000/svg" xmlns:xlink="http://www.w3.org/1999/xlink" x="0px" y="0px"
	 viewBox="0 0 50 50" style="enable-background:new 0 0 50 50;" xml:space="preserve">
<style type="text/css">
	.st0{fill:#E8E8E8;}
</style>
<g>
	<path class="st0" d="M27.57,8.26L10.24,33l-3.86-2.19c-4.51-2.56-4.51-9.06,0-11.62L25.51,8.32C26.19,7.93,26.95,7.95,27.57,8.26z"
		/>
	<path class="st0" d="M28.84,39.74c0,1.71-1.84,2.79-3.33,1.94l-2.17-1.23l4.44-6.34C28.04,35.99,28.4,37.87,28.84,39.74z"/>
	<path class="st0" d="M47,25c0,7.04-4.33,13.08-10.47,15.6c-1.77,0.72-3.78-0.18-4.44-1.97c-0.14-0.38-0.2-0.76-0.2-1.14
		c0-1.35,0.84-2.61,2.17-3.17c3.64-1.53,6.2-5.13,6.2-9.32c0-2.22-0.72-4.27-1.94-5.94l3.32-4.75c0.23-0.33,0.43-0.67,0.61-1.03
		C45.19,16.32,47,20.45,47,25z"/>
	<path class="st0" d="M37.77,25c0,3.22-2.41,5.89-5.52,6.3c-0.48,0.06-0.94-0.19-1.13-0.62c-0.13-0.28-0.24-0.56-0.34-0.85
		l5.88-8.41C37.36,22.44,37.77,23.67,37.77,25z"/>
	<path class="st0" d="M11.921,43.678L11.921,43.678c-2.036-1.425-2.531-4.231-1.105-6.267L31.811,7.427
		c1.425-2.036,4.231-2.531,6.267-1.105l0,0c2.036,1.425,2.531,4.231,1.105,6.267L18.189,42.573
		C16.763,44.609,13.957,45.104,11.921,43.678z"/>
</g>
</svg>
