<?xml version="1.0" encoding="utf-8"?>
<!-- Generator: Adobe Illustrator 26.0.0, SVG Export Plug-In . SVG Version: 6.00 Build 0)  -->
<svg version="1.1" id="Capa_1" xmlns="http://www.w3.org/2000/svg" xmlns:xlink="http://www.w3.org/1999/xlink" x="0px" y="0px"
	 viewBox="0 0 50 50" style="enable-background:new 0 0 50 50;" xml:space="preserve">
<g>
	<path d="M25.92,11.28V9.44c0-2.032-1.648-3.68-3.68-3.68H5.68C3.648,5.76,2,7.408,2,9.44v31.12c0,2.032,1.648,3.68,3.68,3.68h25.76
		c2.032,0,3.68-1.648,3.68-3.68V15.88c0-2.032-1.648-3.68-3.68-3.68h-4.6C26.332,12.2,25.92,11.788,25.92,11.28z M29.6,39.64H7.52
		c-0.508,0-0.92-0.412-0.92-0.92V11.28c0-0.508,0.412-0.92,0.92-0.92H20.4c0.508,0,0.92,0.412,0.92,0.92v1.84
		c0,2.032,1.648,3.68,3.68,3.68h4.6c0.508,0,0.92,0.412,0.92,0.92v21C30.52,39.228,30.108,39.64,29.6,39.64z"/>
	<path d="M48,8.06v33.88c0,1.27-1.03,2.3-2.3,2.3h0c-1.27,0-2.3-1.03-2.3-2.3V8.06c0-1.27,1.03-2.3,2.3-2.3h0
		C46.97,5.76,48,6.79,48,8.06z"/>
	<path d="M41.56,9.44v32.5c0,1.27-1.03,2.3-2.3,2.3h0c-1.27,0-2.3-1.03-2.3-2.3V11.28c0-0.508-0.412-0.92-0.92-0.92h-5.98
		c-1.27,0-2.3-1.03-2.3-2.3v0c0-1.27,1.03-2.3,2.3-2.3h7.82C39.912,5.76,41.56,7.408,41.56,9.44z"/>
</g>
</svg>
