<?xml version="1.0" encoding="utf-8"?>
<!-- Generator: Adobe Illustrator 26.0.0, SVG Export Plug-In . SVG Version: 6.00 Build 0)  -->
<svg version="1.1" id="Capa_1" xmlns="http://www.w3.org/2000/svg" xmlns:xlink="http://www.w3.org/1999/xlink" x="0px" y="0px"
	 viewBox="0 0 50 50" style="enable-background:new 0 0 50 50;" xml:space="preserve">
<g>
	<path d="M19.72,3C10.484,3,3,10.484,3,19.72s7.484,16.72,16.72,16.72s16.72-7.484,16.72-16.72S28.956,3,19.72,3z M19.72,31.16
		c-6.317,0-11.44-5.123-11.44-11.44S13.403,8.28,19.72,8.28s11.44,5.123,11.44,11.44S26.037,31.16,19.72,31.16z"/>
	<path d="M46.037,46.039L46.037,46.039c-1.374,1.373-3.711,1.261-5.222-0.249l-8.219-8.214c-1.513-1.512-1.624-3.852-0.249-5.226
		l0,0c1.374-1.373,3.711-1.261,5.222,0.249l8.219,8.214C47.301,42.325,47.412,44.665,46.037,46.039z"/>
</g>
</svg>
