<?xml version="1.0" encoding="utf-8"?>
<!-- Generator: Adobe Illustrator 26.0.0, SVG Export Plug-In . SVG Version: 6.00 Build 0)  -->
<svg version="1.1" id="Capa_1" xmlns="http://www.w3.org/2000/svg" xmlns:xlink="http://www.w3.org/1999/xlink" x="0px" y="0px"
	 viewBox="0 0 50 50" style="enable-background:new 0 0 50 50;" xml:space="preserve">
<style type="text/css">
	.st0{fill:#E8E8E8;}
</style>
<g>
	<path class="st0" d="M46.387,36.763l-7.857,5.082c-0.889,0.584-2.074-0.072-2.074-1.14v-1.482h-0.872
		c-2.709,0-5.272-1.223-6.977-3.327l-3.123-3.856l-0.314-0.386l-4.624-5.711l-5.144-6.359c-1.364-1.686-3.416-2.665-5.585-2.665
		H6.592C4.608,16.919,3,15.311,3,13.327l0,0c0-1.984,1.608-3.592,3.592-3.592h4.68c3.412,0,6.642,1.541,8.789,4.193l0,0l5.109,6.312
		l4.615,5.702l4.399,5.431c0.341,0.421,0.854,0.665,1.395,0.665h0.877v-1.5c0-1.069,1.185-1.706,2.074-1.131l7.857,5.091
		C47.204,35.021,47.204,36.233,46.387,36.763z"/>
	<path class="st0" d="M46.387,15.5l-7.857,5.091c-0.889,0.575-2.074-0.063-2.074-1.131v-1.5h-0.88c-0.539,0-1.051,0.242-1.392,0.664
		l-4.005,4.948l-4.624-5.702l3.053-3.762c1.706-2.11,4.265-3.331,6.977-3.331h0.871V9.296c0-1.069,1.185-1.724,2.074-1.14
		l7.857,5.082C47.204,13.767,47.204,14.979,46.387,15.5z"/>
	<path class="st0" d="M23.248,32.129l-3.188,3.942c-2.146,2.658-5.378,4.193-8.791,4.193H6.592c-0.988,0-1.886-0.404-2.541-1.051
		C3.404,38.558,3,37.661,3,36.673c0-1.984,1.607-3.592,3.592-3.592h3.224c2.173,0,4.22-0.979,5.585-2.667l3.232-3.987L23.248,32.129
		z"/>
</g>
</svg>
